<svg xmlns="http://www.w3.org/2000/svg" viewBox="0 0 900 1600"><defs><radialGradient id="g"><stop stop-color="#0b6fa8" stop-opacity=".55"/><stop offset="1" stop-color="#020711" stop-opacity="0"/></radialGradient><linearGradient id="m" x2="0" y2="1"><stop stop-color="#263e54"/><stop offset="1" stop-color="#07111d"/></linearGradient><filter id="glow"><feGaussianBlur stdDeviation="10" result="b"/><feMerge><feMergeNode in="b"/><feMergeNode in="SourceGraphic"/></feMerge></filter></defs><rect width="900" height="1600" fill="#020711"/><circle cx="620" cy="350" r="430" fill="url(#g)"/><g opacity=".45" stroke="#16a9ff" stroke-width="2"><path d="M0 720H900M0 820H900M0 920H900"/><path d="M100 650V1100M250 650V1100M400 650V1100M550 650V1100M700 650V1100M850 650V1100"/></g><g transform="translate(430 90)"><path d="M175 55C330 30 455 130 470 285c12 121-48 210-126 264l-8 112-173 9-50-111C33 514-10 420 7 303 29 151 83 80 175 55z" fill="url(#m)" stroke="#278ac3" stroke-width="5"/><path d="M31 282l104-83 197-28 112 86-31 184-101 106-190-3-96-111z" fill="#0a1724" stroke="#1c6f9e" stroke-width="4"/><path d="M72 310l128-39-24 66-106 24z" fill="#00a9ff" filter="url(#glow)"/><circle cx="350" cy="300" r="78" fill="#03101d" stroke="#178bd0" stroke-width="8"/><circle cx="350" cy="300" r="46" fill="none" stroke="#00a9ff" stroke-width="8" filter="url(#glow)"/><circle cx="350" cy="300" r="13" fill="#7ee7ff" filter="url(#glow)"/><path d="M130 550l-76 189 56 214h334l52-216-98-185-77 74-131 1z" fill="url(#m)" stroke="#206d98" stroke-width="5"/><path d="M183 553l-22 178 53 164M318 552l35 174-40 171" fill="none" stroke="#13a9ee" stroke-opacity=".45" stroke-width="5"/></g><g fill="#22b7ff" opacity=".45"><circle cx="90" cy="1180" r="3"/><circle cx="170" cy="1280" r="2"/><circle cx="770" cy="1080" r="3"/><circle cx="690" cy="1230" r="2"/><circle cx="540" cy="1380" r="3"/></g></svg>